<svg width="400" height="400" viewBox="0 0 400 400" xmlns="http://www.w3.org/2000/svg">
  <!-- Portal swirl pattern -->
  <defs>
    <radialGradient id="portalGradient" cx="50%" cy="50%" r="50%" fx="50%" fy="50%">
      <stop offset="0%" stop-color="#3cdc97" stop-opacity="0.08"/>
      <stop offset="70%" stop-color="#00b5cc" stop-opacity="0.04"/>
      <stop offset="100%" stop-color="#06BCC1" stop-opacity="0"/>
    </radialGradient>
    
    <filter id="glow" x="-50%" y="-50%" width="200%" height="200%">
      <feGaussianBlur stdDeviation="4" result="blur" />
      <feComposite in="SourceGraphic" in2="blur" operator="over" />
    </filter>
  </defs>
  
  <!-- Background pattern -->
  <rect width="400" height="400" fill="url(#portalGradient)" />
  
  <!-- Swirl patterns -->
  <g opacity="0.15">
    <!-- Outer swirl -->
    <path d="M200,50 C300,50 350,150 350,200 C350,250 300,350 200,350 C100,350 50,250 50,200 C50,150 100,50 200,50 Z" 
          fill="none" stroke="#3cdc97" stroke-width="2" />
    
    <!-- Middle swirl -->
    <path d="M200,100 C270,100 300,150 300,200 C300,250 270,300 200,300 C130,300 100,250 100,200 C100,150 130,100 200,100 Z" 
          fill="none" stroke="#06BCC1" stroke-width="1.5" />
    
    <!-- Inner swirl -->
    <path d="M200,150 C235,150 250,175 250,200 C250,225 235,250 200,250 C165,250 150,225 150,200 C150,175 165,150 200,150 Z" 
          fill="none" stroke="#00b5cc" stroke-width="1" />
  </g>
  
  <!-- Random portal dots -->
  <g opacity="0.2">
    <circle cx="120" cy="130" r="3" fill="#3cdc97" />
    <circle cx="280" cy="150" r="2" fill="#06BCC1" />
    <circle cx="180" cy="270" r="4" fill="#00b5cc" />
    <circle cx="250" cy="220" r="3" fill="#3cdc97" />
    <circle cx="150" cy="180" r="2" fill="#06BCC1" />
    <circle cx="220" cy="120" r="3" fill="#00b5cc" />
    <circle cx="100" cy="240" r="2" fill="#3cdc97" />
    <circle cx="300" cy="200" r="4" fill="#06BCC1" />
  </g>
  
  <!-- Small portal circles -->
  <g filter="url(#glow)" opacity="0.1">
    <circle cx="80" cy="80" r="15" fill="#3cdc97" />
    <circle cx="320" cy="100" r="10" fill="#00b5cc" />
    <circle cx="120" cy="300" r="12" fill="#06BCC1" />
    <circle cx="340" cy="280" r="8" fill="#3cdc97" />
  </g>
</svg>